# xmcd
#
# Track frame offsets:
#	150
#	18577
#	35377
#	54187
#	73492
#	94102
#	113525
#	136342
#	153690
#	175572
#	196115
#	212957
#
# Disc length: 3122 seconds
#
# Revision: 1
# Processed by: cddbd v1.5PL3 Copyright (c) Steve Scherf et al.
# Submitted via: CDex 1.50Beta5
#
DISCID=a10c300c
DTITLE=水樹奈々 - supersonic girl
DYEAR=2001
DGENRE=Soundtrack
TTITLE0=Love's Wonderland
TTITLE1=The place of happiness
TTITLE2=supersonic girl
TTITLE3=Heaven Knows ?Brave edit?
TTITLE4=想い ?Pedigreed mix?
TTITLE5=Look Away ?All together version?
TTITLE6=TRANSMIGRATION
TTITLE7=LOOKING ON THE MOON
TTITLE8=真冬の観覧車
TTITLE9=NANA色のように ?Special album version?
TTITLE10=水中の青空
TTITLE11=WINDOW OF HEART
EXTD=
EXTT0=
EXTT1=
EXTT2=
EXTT3=
EXTT4=
EXTT5=
EXTT6=
EXTT7=
EXTT8=
EXTT9=
EXTT10=
EXTT11=
PLAYORDER=
